<svg version="1.1" id="Layer_1" xmlns="http://www.w3.org/2000/svg" xmlns:xlink="http://www.w3.org/1999/xlink" x="0px" y="0px"
	 width="100%" viewBox="0 0 1024 672" enable-background="new 0 0 1024 672" xml:space="preserve">
<path fill="#000000" opacity="1.000000" stroke="none" 
	d="
M481.000000,257.863617 
	C560.367432,257.862732 639.234924,257.862732 718.443298,257.862732 
	C718.272644,261.435364 716.068604,262.658966 714.523438,264.179352 
	C695.890930,282.512512 677.104248,300.690369 658.595215,319.146820 
	C652.870667,324.855103 646.957336,330.037994 639.520203,333.380707 
	C633.816895,335.944092 627.974609,337.433044 621.668396,337.441833 
	C545.401306,337.548401 469.133087,338.022400 392.867798,337.727325 
	C362.566925,337.610107 332.276276,338.106934 301.980652,338.005493 
	C300.073730,337.999115 297.954071,338.644196 295.807129,336.284912 
	C299.404816,332.708679 303.008667,329.127014 306.611755,325.544556 
	C321.493103,310.748291 336.381653,295.959259 351.253387,281.153351 
	C366.957123,265.519165 386.264252,258.311737 408.037994,257.922974 
	C432.184631,257.491913 456.345398,257.850037 481.000000,257.863617 
z"/>
<path fill="#000000" opacity="1.000000" stroke="none" 
	d="
M407.674438,358.289612 
	C408.229187,354.369110 411.003265,355.040863 413.172333,355.033783 
	C435.489349,354.960907 457.806915,355.026886 480.123474,354.898438 
	C483.990570,354.876190 485.423431,356.217957 485.371033,360.132172 
	C485.199371,372.954071 485.299042,385.779572 485.287506,398.603668 
	C485.265015,423.585693 485.229187,448.567719 485.214844,473.549744 
	C485.195099,507.961853 496.087036,538.213745 519.720032,563.540100 
	C522.816528,566.858521 526.315613,569.801147 529.344788,573.344116 
	C520.567017,573.028137 512.619568,570.079163 504.915344,566.782959 
	C464.517334,549.498962 434.878052,521.190186 418.212891,480.207245 
	C411.341461,463.309204 407.340302,445.687622 407.559906,427.207977 
	C407.831024,404.394531 407.640564,381.575623 407.674438,358.289612 
z"/>
<path fill="#000000" opacity="1.000000" stroke="none" 
	d="
M531.486938,489.496948 
	C545.948364,495.610931 560.603149,498.971344 575.986511,498.926514 
	C581.313416,498.911011 586.677002,498.703430 591.960754,499.223877 
	C604.343811,500.443604 614.773193,505.711548 623.567383,514.664917 
	C642.119629,533.553101 660.724976,552.393921 679.947876,570.610107 
	C682.080444,572.630981 684.228638,574.703491 685.748474,577.722656 
	C682.835144,579.061768 680.024048,578.971619 677.273071,578.976257 
	C645.963440,579.028625 614.639526,579.626465 583.349487,578.856873 
	C563.708496,578.373779 547.179993,569.193542 533.512268,555.308105 
	C511.906982,533.358582 502.718170,506.436768 502.697357,476.025696 
	C502.696899,475.363434 502.766174,474.693726 502.883636,474.042084 
	C502.937256,473.744537 503.187653,473.482452 503.651276,472.682312 
	C512.409180,478.944641 521.261108,485.027405 531.486938,489.496948 
z"/>
<path fill="#000000" opacity="1.000000" stroke="none" 
	d="
M410.660248,242.917633 
	C407.460175,242.517746 407.500702,240.512589 407.509369,238.404999 
	C407.571686,223.243759 407.741821,208.080795 407.581726,192.921509 
	C407.450867,180.528870 412.084381,169.811768 420.250336,161.195694 
	C440.758972,139.556671 461.907562,118.524078 482.816498,97.264999 
	C483.137085,96.939018 483.675232,96.826981 484.161713,96.590904 
	C486.168274,97.914177 485.328125,99.929695 485.329010,101.595833 
	C485.352661,146.249084 485.320435,190.902344 485.291473,235.555618 
	C485.286926,242.543823 485.042206,242.906952 478.019470,242.927841 
	C455.709412,242.994186 433.399048,242.956314 410.660248,242.917633 
z"/>
</svg>